<svg xmlns="http://www.w3.org/2000/svg" width="224.25" height="45.764" viewBox="0 0 245 49.998" xmlns:v="https://vecta.io/nano"><defs><linearGradient id="A"><stop stop-color="#2d388a" offset="0"/><stop stop-color="#00aeef" offset="1"/></linearGradient></defs><path fill="#0283fc" d="M55.323 24.123c-.261-.143-.519-.242-.778-.331-.519-.174-1.039-.296-1.559-.405l-3.129-.481-6.281-.501-4.953-.202 3.495-3.923 3.912-4.971 1.771-2.646c.275-.458.538-.926.763-1.431.113-.251.212-.517.289-.804.03-.155.066-.301.061-.489.01-.068-.02-.229-.068-.353-.074-.173-.03-.076-.165-.266-.454-.346-.824-.189-1.099-.139a5.1 5.1 0 0 0-.784.319c-.49.243-.944.524-1.387.816-.888.584-1.728 1.221-2.555 1.872l-4.793 4.085-4.232 3.901-.234-5.75-.499-6.28-.48-3.131-.405-1.559c-.089-.259-.187-.519-.331-.779-.142-.228-.338-.608-.839-.677-.661.056-.76.435-.948.66-.155.258-.265.516-.365.774-.197.516-.343 1.033-.474 1.552l-.618 3.123-.748 6.282-.304 5.242-3.64-3.355-4.793-4.088L16.6 8.318c-.443-.294-.896-.575-1.388-.818a5.1 5.1 0 0 0-.784-.319c-.151-.035-.295-.076-.481-.076-.068-.013-.225.012-.35.057-.149.051-.138.074-.214.111-.299.296-.269.474-.292.669-.006.188.03.335.059.489a5.25 5.25 0 0 0 .291.805c.224.505.488.974.762 1.432l1.771 2.646 3.913 4.97 3.492 3.92-4.949.202-6.279.499-3.131.48-1.559.405c-.259.089-.519.188-.78.331-.232.158-.609.297-.682.877.061.582.435.738.662.908.259.155.516.265.774.365.516.197 1.033.342 1.552.473l3.123.619 6.282.748 5.244.303-3.356 3.641-4.088 4.792-1.873 2.554c-.294.444-.574.897-.817 1.388-.122.244-.232.502-.318.784-.035.151-.076.296-.076.481-.013.068.014.226.057.351.072.175.026.079.159.272.449.359.83.214 1.111.173.288-.076.554-.176.805-.289.505-.225.974-.488 1.432-.764.918-.549 1.788-1.152 2.646-1.771l4.97-3.912 3.346-2.98.258 4.474.749 6.281.618 3.122.473 1.553a4.88 4.88 0 0 0 .366.772c.169.226.325.601.905.661.576-.074.717-.449.876-.678.142-.261.241-.519.331-.778.174-.519.296-1.039.405-1.559l.48-3.129.501-6.28.202-4.953 3.922 3.493 4.972 3.911 2.646 1.771c.457.276.926.538 1.431.764a5.2 5.2 0 0 0 .804.289c.154.03.301.066.489.061.067.01.228-.019.351-.066.149-.054.135-.078.211-.118.294-.299.257-.474.272-.666 0-.185-.04-.33-.075-.48a5.16 5.16 0 0 0-.318-.784 13.06 13.06 0 0 0-.817-1.388c-.584-.888-1.22-1.728-1.872-2.555l-4.085-4.793-3.361-3.646 5.245-.302 6.282-.749 3.123-.618 1.552-.473a5.03 5.03 0 0 0 .772-.365c.225-.153.602-.364.658-.867-.069-.655-.449-.738-.677-.915zM38.2 14.436l4.931-3.881 2.593-1.734c.443-.266.895-.517 1.353-.72a4.49 4.49 0 0 1 .681-.245c.175-.051.345-.033.391-.022.017.028.075.106.032.08-.023.005-.008-.03-.017.035.003.077-.027.184-.052.286a4.49 4.49 0 0 1-.272.661 12.7 12.7 0 0 1-.774 1.309c-.566.858-1.192 1.686-1.836 2.502l-4.057 4.754-4.326 4.688-2.973-.019-.038-3.803 4.364-3.889zm-10.785 12.05l.015.645c-.812-.008-1.625 0-2.437-.017l1.51-1.582.912.954zm2.102 2.101l.468.446-1.106 1.091-.01-1.551.648.015zm2.973-.001l1.319-.031-.052 2.194-1.737-1.714.47-.449zm1.401-3.443l.002-.144-.003.146-1.36 1.378-.635.626c-.298-.001-.595.008-.892.006s-.595-.007-.892-.006l-.632-.624-.627-.636-.006-.89.014-1.939.101-.106-.101.103.006-.899.924-.021-.829.818.858-.818 1.185-.028c-.388-.003-.775.009-1.164.008l1.164-1.111 1.164 1.111c-.388.001-.776-.011-1.164-.008l1.186.028.859.819-.829-.819 1.609.038.037 1.608-.817-.828.817.857.029 1.186-.008-1.165.638.669-.632.639zm1.611.386l1.514 1.587-3.046.02 1.532-1.607zm-8.108-1.118l-2.136-2.168 2.188-.052-.051 2.219zm1.471-2.289l.022-3.134 2.081 1.985-1.158 1.144c-.315-.001-.63.006-.945.006zm2.172-1.149l2.69-2.552.098 3.706-1.63-.011-1.158-1.144zm2.846 2.832l-.011-1.629 2.878.068-2.204 2.234-.664-.672zm-4.741-11.328l.496-6.231.469-3.068.379-1.472a4.2 4.2 0 0 1 .275-.659c.075-.201.312-.335.202-.315.048-.032.189.099.309.298s.219.422.309.654c.181.468.321.965.448 1.465l.606 3.06.745 6.231.337 5.838-2.716 2.661-2.115-2.087.255-6.375zm-8.309 4.982l-4.055-4.755-1.836-2.501a12.42 12.42 0 0 1-.773-1.309 4.48 4.48 0 0 1-.273-.66c-.024-.102-.053-.209-.052-.286-.017-.031-.001-.065.007-.085.185-.092.694.065 1.076.241.458.204.909.454 1.352.72.888.531 1.747 1.124 2.593 1.735l4.933 3.879 3.772 3.359-.131 4.335c-.762.006-1.523-.001-2.285.014l-4.328-4.687zm-2.354 9.398l-6.23-.495-3.068-.469-1.472-.379c-.234-.078-.463-.167-.659-.274-.201-.093-.336-.274-.313-.241-.036.03.098-.168.296-.271.194-.118.421-.218.654-.309.467-.18.965-.321 1.465-.448l3.061-.606 6.231-.745 5.045-.291 2.973 3.158-1.605 1.627-6.376-.256zm4.983 8.309l-4.755 4.055-2.501 1.836c-.427.284-.864.552-1.308.773a4.52 4.52 0 0 1-.66.274c-.191.067-.374.048-.386.051-.022-.032-.071-.095-.032-.069.02-.004.001.028.008-.037-.007-.078.017-.188.035-.295a4.48 4.48 0 0 1 .245-.68c.202-.458.454-.91.72-1.352.531-.888 1.124-1.748 1.734-2.594l3.879-4.932 3.361-3.772 3.661.115.072 2.874-4.072 3.752zm9.919 2.392l-.742 6.232-.606 3.06-.447 1.465a4.16 4.16 0 0 1-.31.655c-.103.198-.3.332-.274.297.029.023-.151-.113-.245-.314-.106-.196-.196-.426-.275-.661a13.06 13.06 0 0 1-.379-1.472l-.469-3.068-.494-6.231-.225-5.529 2.088-1.988 2.671 2.505-.292 5.048zm8.184-5.362l3.881 4.931 1.735 2.593c.265.442.518.894.72 1.352a4.46 4.46 0 0 1 .245.681c.019.106.043.216.035.296.012.028 0 .056-.01.077-.176.087-.682-.094-1.065-.292-.445-.222-.882-.49-1.309-.773l-2.501-1.837-4.753-4.056-4.688-4.325.015-2.29 4.333-.133 3.363 3.776zm12.73-6.679c-.47.158-.97.275-1.472.379l-3.068.471-6.23.493-6.375.255-1.606-1.629 2.97-3.159 5.048.292 6.232.743 3.061.606 1.466.448c.232.091.46.191.653.309.145.064.254.214.29.251-.002.128-.546.421-.968.542z"/><path d="M10.103 12.586c.159 0 .288.129.288.288v26.837c0 .159-.129.288-.288.288h-7.45c-.103 0-.199-.055-.25-.145s-.05-.2.002-.289l1.714-2.9V15.899l-1.71-2.879c-.053-.089-.054-.2-.003-.289s.147-.146.25-.146h7.445zm8.504 11.146c.102.047.168.149.168.262v4.06c0 .116-.07.221-.177.266a.29.29 0 0 1-.111.022c-.074 0-.148-.029-.203-.084l-2.191-2.169c-.057-.056-.088-.134-.085-.214a.29.29 0 0 1 .1-.208l2.191-1.891c.085-.073.206-.091.308-.044zm5.886 11.712c.113.053.179.172.164.295l-.471 4.006c-.017.145-.14.254-.286.254h-3.305c-.115 0-.219-.068-.264-.174s-.024-.228.055-.312l3.777-4.006c.085-.091.219-.116.331-.064zM22.72 17.266c-.086 0-.169-.039-.225-.108l-3.28-4.103c-.069-.086-.082-.205-.035-.305s.149-.163.26-.163h3.28c.159 0 .288.129.288.288v4.103c0 .122-.077.231-.193.272-.031.011-.063.016-.095.016zm14.291 19.841l1.476 2.403c.055.089.057.2.006.291s-.147.147-.251.147h-2.877c-.103 0-.198-.055-.25-.144s-.051-.2.001-.289l1.4-2.403c.051-.088.144-.142.246-.143.109-.002.196.051.249.137zm22.011-24.425c.051.091.048.203-.007.292l-1.508 2.438c-.052.085-.145.137-.245.137h0c-.1 0-.193-.052-.245-.137l-1.498-2.437c-.055-.089-.057-.2-.006-.291s.147-.147.251-.147h3.006c.104 0 .201.057.251.148zm-17.201-.03L56.948 33.3c.036.049.056.109.056.17v6.541c0 .12-.075.228-.188.27l-1.206.449c-.033.012-.067.018-.101.018-.09 0-.178-.042-.233-.119L36.031 14.243c-.028-.021-.053-.047-.073-.077l-.759-1.189c-.057-.089-.06-.201-.01-.293s.147-.15.253-.15h6.147c.092 0 .178.044.232.118zm35.426-.066c.159 0 .288.129.288.288v26.837c0 .159-.129.288-.288.288h-7.45c-.103 0-.199-.055-.25-.145s-.05-.2.002-.289l1.714-2.9V15.879l-1.693-2.859c-.053-.089-.054-.199-.002-.289s.147-.145.25-.145h7.428zm18.631 7.592c.769 1.703 1.159 3.75 1.159 6.084s-.384 4.391-1.141 6.1c-.75 1.693-1.835 3.117-3.224 4.232-1.407 1.129-3.139 1.985-5.148 2.545l-.543.143c-.023.006-.046.009-.069.009-.106 0-.207-.059-.257-.158-.061-.119-.031-.265.072-.351.62-.519 1.156-1.161 1.593-1.908.684-1.172 1.177-2.651 1.463-4.397.276-1.686.416-3.689.416-5.952 0-2.386-.151-4.482-.448-6.23-.307-1.805-.82-3.328-1.525-4.526-.469-.798-1.041-1.476-1.701-2.016-.104-.085-.135-.231-.075-.351s.194-.184.324-.152l.718.185c1.991.553 3.717 1.403 5.132 2.527 1.397 1.111 2.492 2.529 3.254 4.216zm21.377-7.644c.107 0 .206.06.255.155s.043.21-.019.298l-1.964 2.828v23.845c0 .159-.129.288-.288.288h-7.45c-.103 0-.199-.055-.25-.145s-.05-.2.002-.289l1.715-2.9V15.849l-1.702-2.88c-.053-.089-.053-.2-.002-.289s.147-.145.25-.145h9.453zm10.809 22.844c.113.053.179.172.164.295l-.483 4.022c-.017.145-.14.254-.286.254h-3.308c-.115 0-.219-.068-.264-.174s-.024-.228.055-.312l3.791-4.022c.085-.091.219-.116.332-.063zm18.327-22.792c.159 0 .288.129.288.288v26.837c0 .159-.129.288-.288.288h-7.45c-.103 0-.199-.055-.25-.145s-.05-.2.002-.289l1.714-2.9V15.899l-1.71-2.879c-.053-.089-.054-.2-.003-.289s.147-.146.25-.146h7.445zm8.504 11.146c.102.047.168.149.168.262v4.06c0 .116-.07.221-.177.266a.29.29 0 0 1-.111.022c-.074 0-.148-.029-.203-.084l-2.191-2.169c-.057-.056-.088-.134-.085-.214a.29.29 0 0 1 .1-.208l2.191-1.891c.085-.073.206-.091.308-.044zm5.886 11.712c.113.053.179.172.164.295l-.471 4.006c-.017.145-.14.254-.286.254h-3.305c-.115 0-.219-.068-.264-.174s-.024-.228.055-.312l3.777-4.006c.085-.091.219-.116.331-.064zm-1.773-18.178c-.086 0-.169-.039-.225-.108l-3.28-4.103c-.069-.086-.083-.205-.035-.305s.149-.163.26-.163h3.28c.159 0 .288.129.288.288v4.103c0 .122-.077.231-.193.272-.031.011-.063.016-.095.016zm27.702-3.576l-.823-.713c-.105-.082-.14-.226-.084-.347a.29.29 0 0 1 .318-.162l.206.042 1.89.46.886.268c.112.036.19.135.199.252l.194 2.539c.01.128-.066.246-.185.291-.033.013-.068.019-.102.019-.088 0-.174-.041-.229-.114l-.303-.39a20.77 20.77 0 0 0-1.965-2.145zm-10.313 25.889c.111.076.155.217.107.342-.043.112-.151.184-.268.184-.013 0-.027-.001-.041-.003l-.759-.119-2.105-.458-.974-.294c-.11-.037-.187-.137-.196-.253l-.231-3.261c-.009-.128.068-.247.189-.291s.257-.002.332.102c.717.995 1.482 1.894 2.275 2.672.529.52 1.092.984 1.671 1.378zm14.423-10.043c.403.865.608 1.901.608 3.078 0 1.356-.27 2.53-.803 3.489-.545.981-1.269 1.764-2.215 2.394-.852.567-1.864 1.012-3.011 1.323-.025.007-.05.01-.075.01-.101 0-.196-.053-.249-.143-.066-.112-.048-.255.043-.347l.187-.201a5.31 5.31 0 0 0 1.039-1.777c.219-.635.331-1.271.331-1.892 0-.882-.241-1.701-.716-2.434-.431-.667-1.01-1.297-1.72-1.872-.677-.548-1.463-1.076-2.337-1.569l-2.603-1.444-2.982-1.721c-.945-.574-1.804-1.22-2.553-1.919a8.79 8.79 0 0 1-1.762-2.268c-.422-.786-.636-1.712-.636-2.75 0-1.274.262-2.38.779-3.29.53-.933 1.239-1.68 2.169-2.284.745-.484 1.613-.878 2.58-1.171.122-.037.254.011.324.117s.062.246-.02.344c-.336.4-.607.857-.806 1.358-.236.592-.355 1.234-.355 1.909a4.05 4.05 0 0 0 .83 2.472c.488.652 1.11 1.26 1.849 1.807a17.81 17.81 0 0 0 2.373 1.47l2.447 1.259 3.09 1.719c.942.575 1.788 1.232 2.515 1.951.701.695 1.265 1.497 1.678 2.384zm26.402-15.846l-.823-.713c-.105-.082-.14-.226-.084-.347a.29.29 0 0 1 .318-.162l.206.042 1.89.46.886.268c.112.036.19.135.199.252l.194 2.539c.01.128-.066.246-.185.291-.033.013-.068.019-.102.019-.088 0-.174-.041-.229-.114l-.303-.39a20.77 20.77 0 0 0-1.965-2.145zm-10.313 25.889c.111.076.155.217.107.342-.043.112-.151.184-.268.184-.013 0-.027-.001-.041-.003l-.759-.119-2.105-.458-.974-.294c-.11-.037-.187-.137-.196-.253l-.231-3.261c-.009-.128.068-.247.189-.291s.257-.002.332.102c.717.995 1.482 1.894 2.275 2.672.529.52 1.092.984 1.671 1.378zm14.423-10.043c.403.865.608 1.901.608 3.078 0 1.356-.27 2.53-.803 3.489-.545.981-1.269 1.764-2.215 2.394-.852.567-1.864 1.012-3.011 1.323-.025.007-.05.01-.075.01-.101 0-.196-.053-.249-.143-.066-.112-.048-.255.043-.347l.187-.201a5.31 5.31 0 0 0 1.039-1.777c.219-.635.331-1.271.331-1.892 0-.882-.241-1.701-.716-2.434-.431-.667-1.01-1.297-1.72-1.872-.677-.548-1.463-1.076-2.337-1.569l-2.603-1.444-2.982-1.721c-.945-.574-1.804-1.22-2.553-1.919a8.79 8.79 0 0 1-1.762-2.268c-.422-.786-.636-1.712-.636-2.75 0-1.274.262-2.38.779-3.29.53-.933 1.239-1.68 2.169-2.284.745-.484 1.613-.878 2.58-1.171.122-.037.254.011.324.117s.062.246-.02.344c-.336.4-.607.857-.806 1.358-.236.592-.355 1.234-.355 1.909a4.05 4.05 0 0 0 .83 2.472c.488.652 1.11 1.26 1.849 1.807a17.81 17.81 0 0 0 2.373 1.47l2.447 1.259 3.09 1.719c.942.575 1.788 1.232 2.515 1.951.701.695 1.265 1.497 1.678 2.384z" transform="matrix(.796997 0 0 .796997 68.114661 4.067255)" fill="url(#A)"/></svg>