<svg xmlns="http://www.w3.org/2000/svg" xmlns:v="https://vecta.io/nano" width="100" height="135" style="width: 100%;
" viewBox="0 0 65 50" class="w-100"><path fill="#00aeef" d="M55.323 24.123c-.261-.143-.519-.242-.778-.331-.519-.174-1.039-.296-1.559-.405l-3.129-.481-6.281-.501-4.953-.202 3.495-3.923 3.912-4.971 1.771-2.646c.275-.458.538-.926.763-1.431.113-.251.212-.517.289-.804.03-.155.066-.301.061-.489.01-.068-.02-.229-.068-.353-.074-.173-.03-.076-.165-.266-.454-.346-.824-.189-1.099-.139a5.1 5.1 0 0 0-.784.319c-.49.243-.944.524-1.387.816-.888.584-1.728 1.221-2.555 1.872l-4.793 4.085-4.232 3.901-.234-5.75-.499-6.28-.48-3.131-.405-1.559c-.089-.259-.187-.519-.331-.779-.142-.228-.338-.608-.839-.677-.661.056-.76.435-.948.66-.155.258-.265.516-.365.774-.197.516-.343 1.033-.474 1.552l-.618 3.123-.748 6.282-.304 5.242-3.64-3.355-4.793-4.088L16.6 8.318c-.443-.294-.896-.575-1.388-.818a5.1 5.1 0 0 0-.784-.319c-.151-.035-.295-.076-.481-.076-.068-.013-.225.012-.35.057-.149.051-.138.074-.214.111-.299.296-.269.474-.292.669-.006.188.03.335.059.489a5.25 5.25 0 0 0 .291.805c.224.505.488.974.762 1.432l1.771 2.646 3.913 4.97 3.492 3.92-4.949.202-6.279.499-3.131.48-1.559.405c-.259.089-.519.188-.78.331-.232.158-.609.297-.682.877.061.582.435.738.662.908.259.155.516.265.774.365.516.197 1.033.342 1.552.473l3.123.619 6.282.748 5.244.303-3.356 3.641-4.088 4.792-1.873 2.554c-.294.444-.574.897-.817 1.388-.122.244-.232.502-.318.784-.035.151-.076.296-.076.481-.013.068.014.226.057.351.072.175.026.079.159.272.449.359.83.214 1.111.173.288-.076.554-.176.805-.289.505-.225.974-.488 1.432-.764.918-.549 1.788-1.152 2.646-1.771l4.97-3.912 3.346-2.98.258 4.474.749 6.281.618 3.122.473 1.553a4.88 4.88 0 0 0 .366.772c.169.226.325.601.905.661.576-.074.717-.449.876-.678.142-.261.241-.519.331-.778.174-.519.296-1.039.405-1.559l.48-3.129.501-6.28.202-4.953 3.922 3.493 4.972 3.911 2.646 1.771c.457.276.926.538 1.431.764a5.2 5.2 0 0 0 .804.289c.154.03.301.066.489.061.067.01.228-.019.351-.066.149-.054.135-.078.211-.118.294-.299.257-.474.272-.666 0-.185-.04-.33-.075-.48a5.16 5.16 0 0 0-.318-.784 13.06 13.06 0 0 0-.817-1.388c-.584-.888-1.22-1.728-1.872-2.555l-4.085-4.793-3.361-3.646 5.245-.302 6.282-.749 3.123-.618 1.552-.473a5.03 5.03 0 0 0 .772-.365c.225-.153.602-.364.658-.867-.069-.655-.449-.738-.677-.915zM38.2 14.436l4.931-3.881 2.593-1.734c.443-.266.895-.517 1.353-.72a4.49 4.49 0 0 1 .681-.245c.175-.051.345-.033.391-.022.017.028.075.106.032.08-.023.005-.008-.03-.017.035.003.077-.027.184-.052.286a4.49 4.49 0 0 1-.272.661 12.7 12.7 0 0 1-.774 1.309c-.566.858-1.192 1.686-1.836 2.502l-4.057 4.754-4.326 4.688-2.973-.019-.038-3.803 4.364-3.889zm-10.785 12.05l.015.645c-.812-.008-1.625 0-2.437-.017l1.51-1.582.912.954zm2.102 2.101l.468.446-1.106 1.091-.01-1.551.648.015zm2.973-.001l1.319-.031-.052 2.194-1.737-1.714.47-.449zm1.401-3.443l.002-.144-.003.146-1.36 1.378-.635.626c-.298-.001-.595.008-.892.006s-.595-.007-.892-.006l-.632-.624-.627-.636-.006-.89.014-1.939.101-.106-.101.103.006-.899.924-.021-.829.818.858-.818 1.185-.028c-.388-.003-.775.009-1.164.008l1.164-1.111 1.164 1.111c-.388.001-.776-.011-1.164-.008l1.186.028.859.819-.829-.819 1.609.038.037 1.608-.817-.828.817.857.029 1.186-.008-1.165.638.669-.632.639zm1.611.386l1.514 1.587-3.046.02 1.532-1.607zm-8.108-1.118l-2.136-2.168 2.188-.052-.051 2.219zm1.471-2.289l.022-3.134 2.081 1.985-1.158 1.144c-.315-.001-.63.006-.945.006zm2.172-1.149l2.69-2.552.098 3.706-1.63-.011-1.158-1.144zm2.846 2.832l-.011-1.629 2.878.068-2.204 2.234-.664-.672zm-4.741-11.328l.496-6.231.469-3.068.379-1.472a4.2 4.2 0 0 1 .275-.659c.075-.201.312-.335.202-.315.048-.032.189.099.309.298s.219.422.309.654c.181.468.321.965.448 1.465l.606 3.06.745 6.231.337 5.838-2.716 2.661-2.115-2.087.255-6.375zm-8.309 4.982l-4.055-4.755-1.836-2.501a12.42 12.42 0 0 1-.773-1.309 4.48 4.48 0 0 1-.273-.66c-.024-.102-.053-.209-.052-.286-.017-.031-.001-.065.007-.085.185-.092.694.065 1.076.241.458.204.909.454 1.352.72.888.531 1.747 1.124 2.593 1.735l4.933 3.879 3.772 3.359-.131 4.335c-.762.006-1.523-.001-2.285.014l-4.328-4.687zm-2.354 9.398l-6.23-.495-3.068-.469-1.472-.379c-.234-.078-.463-.167-.659-.274-.201-.093-.336-.274-.313-.241-.036.03.098-.168.296-.271.194-.118.421-.218.654-.309.467-.18.965-.321 1.465-.448l3.061-.606 6.231-.745 5.045-.291 2.973 3.158-1.605 1.627-6.376-.256zm4.983 8.309l-4.755 4.055-2.501 1.836c-.427.284-.864.552-1.308.773a4.52 4.52 0 0 1-.66.274c-.191.067-.374.048-.386.051-.022-.032-.071-.095-.032-.069.02-.004.001.028.008-.037-.007-.078.017-.188.035-.295a4.48 4.48 0 0 1 .245-.68c.202-.458.454-.91.72-1.352.531-.888 1.124-1.748 1.734-2.594l3.879-4.932 3.361-3.772 3.661.115.072 2.874-4.072 3.752zm9.919 2.392l-.742 6.232-.606 3.06-.447 1.465a4.16 4.16 0 0 1-.31.655c-.103.198-.3.332-.274.297.029.023-.151-.113-.245-.314-.106-.196-.196-.426-.275-.661a13.06 13.06 0 0 1-.379-1.472l-.469-3.068-.494-6.231-.225-5.529 2.088-1.988 2.671 2.505-.292 5.048zm8.184-5.362l3.881 4.931 1.735 2.593c.265.442.518.894.72 1.352a4.46 4.46 0 0 1 .245.681c.019.106.043.216.035.296.012.028 0 .056-.01.077-.176.087-.682-.094-1.065-.292-.445-.222-.882-.49-1.309-.773l-2.501-1.837-4.753-4.056-4.688-4.325.015-2.29 4.333-.133 3.363 3.776zm12.73-6.679c-.47.158-.97.275-1.472.379l-3.068.471-6.23.493-6.375.255-1.606-1.629 2.97-3.159 5.048.292 6.232.743 3.061.606 1.466.448c.232.091.46.191.653.309.145.064.254.214.29.251-.002.128-.546.421-.968.542z" style="
"></path></svg>